<?xml version="1.0" encoding="UTF-8"?>
<svg version="1.1" xmlns="http://www.w3.org/2000/svg" width="500" height="500">
<path d="M0 0 C165 0 330 0 500 0 C500 165 500 330 500 500 C335 500 170 500 0 500 C0 335 0 170 0 0 Z " fill="#000000" transform="translate(0,0)"/>
<path d="M0 0 C1.35568336 0.00333092 1.35568336 0.00333092 2.73875427 0.00672913 C3.75973709 0.00680466 4.78071991 0.00688019 5.8326416 0.00695801 C6.94304306 0.01211929 8.05344452 0.01728058 9.19749451 0.02259827 C10.89336952 0.02472069 10.89336952 0.02472069 12.62350464 0.02688599 C16.25105891 0.03250433 19.8785525 0.04505994 23.50608826 0.05775452 C25.95856133 0.06276715 28.41103536 0.06733047 30.86351013 0.07142639 C36.89022371 0.08247971 42.91690165 0.09923568 48.94358826 0.12025452 C47.39935759 4.93705497 45.41267088 9.24696468 43.00608826 13.68275452 C38.16633246 22.73063068 33.4838369 31.85452881 28.81611633 40.99180603 C13.93844607 70.1018737 13.93844607 70.1018737 5.94358826 84.12025452 C5.63832214 85.01768372 5.33305603 85.91511292 5.01853943 86.83973694 C2.45694434 89.65511048 1.62919157 89.50626549 -2.07862854 89.68788147 C-4.22112563 89.68708886 -6.36372253 89.65878216 -8.50563049 89.60853577 C-9.63338394 89.60146103 -10.76113739 89.59438629 -11.92306519 89.58709717 C-15.53068433 89.55907304 -19.13676046 89.4963156 -22.74391174 89.43275452 C-25.18724873 89.40768221 -27.63061001 89.38486719 -30.07398987 89.36439514 C-36.06865837 89.30922 -42.06242485 89.22551268 -48.05641174 89.12025452 C-46.33054023 80.49089695 -41.15509796 72.90775833 -37.05641174 65.12025452 C-61.80641174 64.62525452 -61.80641174 64.62525452 -87.05641174 64.12025452 C-87.38641174 65.77025452 -87.71641174 67.42025452 -88.05641174 69.12025452 C-88.62506869 70.81487893 -89.23120018 72.49726528 -89.86891174 74.16712952 C-90.22211487 75.09396545 -90.57531799 76.02080139 -90.93922424 76.97572327 C-91.30789612 77.93091858 -91.67656799 78.88611389 -92.05641174 79.87025452 C-92.42508362 80.84091858 -92.79375549 81.81158264 -93.17359924 82.81166077 C-95.92340437 89.98724715 -95.92340437 89.98724715 -97.05641174 91.12025452 C-98.65252156 91.21359157 -100.25274602 91.23770824 -101.85157776 91.23377991 C-102.87256058 91.23370438 -103.8935434 91.23362885 -104.94546509 91.23355103 C-106.05586655 91.22838974 -107.16626801 91.22322845 -108.31031799 91.21791077 C-109.44090134 91.21649582 -110.57148468 91.21508087 -111.73632812 91.21362305 C-115.3638824 91.20800471 -118.99137598 91.1954491 -122.61891174 91.18275452 C-125.07138481 91.17774188 -127.52385885 91.17317856 -129.97633362 91.16908264 C-136.00304719 91.15802932 -142.02972514 91.14127335 -148.05641174 91.12025452 C-147.42290134 85.98037681 -145.856747 81.59980697 -143.95094299 76.83119202 C-143.47682732 75.62393463 -143.47682732 75.62393463 -142.99313354 74.39228821 C-141.95716994 71.75776182 -140.91313023 69.12651864 -139.86891174 66.49525452 C-139.1487592 64.66915195 -138.42920203 62.84281448 -137.71022034 61.01625061 C-136.60300924 58.20359813 -135.49536552 55.39112505 -134.38551331 52.57951355 C-131.88147416 46.2331518 -129.40600189 39.87633806 -126.95094299 33.51087952 C-126.62952835 32.67863861 -126.30811371 31.84639771 -125.97695923 30.98893738 C-124.12459428 26.19232069 -124.12459428 26.19232069 -122.27824402 21.39338684 C-121.43932292 19.2099255 -120.59599381 17.02821471 -119.75172424 14.84681702 C-119.27751038 13.61527893 -118.80329651 12.38374084 -118.31471252 11.11488342 C-117.05641174 8.12025452 -117.05641174 8.12025452 -115.05641174 5.12025452 C-112.87974548 4.75949097 -112.87974548 4.75949097 -110.14772034 4.77967834 C-108.61635941 4.78001823 -108.61635941 4.78001823 -107.05406189 4.78036499 C-105.94882172 4.79584885 -104.84358154 4.8113327 -103.70484924 4.82728577 C-102.57568085 4.83153061 -101.44651245 4.83577545 -100.28312683 4.84014893 C-96.66564902 4.8569832 -93.04872205 4.89464477 -89.43141174 4.93275452 C-86.9835031 4.94779518 -84.53558576 4.96148466 -82.08766174 4.97377014 C-76.07705615 5.00690225 -70.06677329 5.05714873 -64.05641174 5.12025452 C-64.46650888 6.58044887 -64.88501053 8.03828223 -65.30641174 9.49525452 C-65.53844299 10.30736389 -65.77047424 11.11947327 -66.00953674 11.95619202 C-67.48571507 16.41777577 -69.31107976 20.75692456 -71.05641174 25.12025452 C-52.57641174 25.12025452 -34.09641174 25.12025452 -15.05641174 25.12025452 C-14.39641174 23.14025452 -13.73641174 21.16025452 -13.05641174 19.12025452 C-12.316919 17.60241567 -11.53522926 16.10425903 -10.70875549 14.63197327 C-10.26854065 13.84371155 -9.82832581 13.05544983 -9.37477112 12.24330139 C-8.91908752 11.43957092 -8.46340393 10.63584045 -7.99391174 9.80775452 C-7.53436096 8.98468811 -7.07481018 8.1616217 -6.60133362 7.31361389 C-2.58004348 0.15087537 -2.58004348 0.15087537 0 0 Z " fill="#FE5E3E" transform="translate(314.05641174316406,146.87974548339844)"/>
<path d="M0 0 C0.92702728 0.00960754 1.85405457 0.01921509 2.80917358 0.02911377 C5.87717222 0.06212788 8.94502953 0.10245116 12.01293945 0.14282227 C14.13857015 0.16712102 16.26420609 0.1909647 18.3898468 0.21437073 C23.98766044 0.27723599 29.58538131 0.3462958 35.18310547 0.41662598 C40.89391857 0.48728732 46.60479751 0.55211745 52.31567383 0.61743164 C63.52342846 0.74647548 74.73109378 0.88206055 85.9387207 1.02172852 C85.20193634 4.26401205 84.21133571 6.36506057 82.27075195 9.08422852 C81.43495605 10.26577515 81.43495605 10.26577515 80.58227539 11.47119141 C79.97802734 12.31286865 79.3737793 13.1545459 78.7512207 14.02172852 C77.48152336 15.81197531 76.21199734 17.60234362 74.94262695 19.39282227 C73.95673584 20.77703369 73.95673584 20.77703369 72.95092773 22.18920898 C69.67264917 26.80393696 66.43183477 31.44475591 63.1887207 36.08422852 C62.59293213 36.93436523 61.99714355 37.78450195 61.38330078 38.66040039 C60.82924561 39.45124023 60.27519043 40.24208008 59.7043457 41.05688477 C59.21740234 41.75177002 58.73045898 42.44665527 58.22875977 43.16259766 C57.11362904 44.76966057 56.02374715 46.39418885 54.9387207 48.02172852 C52.81930542 48.42045593 52.81930542 48.42045593 50.14916992 48.45410156 C48.63752258 48.48378525 48.63752258 48.48378525 47.09533691 48.5140686 C45.4361322 48.52366104 45.4361322 48.52366104 43.7434082 48.53344727 C42.00951843 48.56044205 42.00951843 48.56044205 40.24060059 48.58798218 C36.43167576 48.64310185 32.6228987 48.67652013 28.8137207 48.70922852 C26.19603277 48.74204611 23.57835674 48.77582604 20.96069336 48.81054688 C-3.04548283 49.10680693 -27.053758 49.13102176 -51.0612793 49.02172852 C-51.0612793 44.92910523 -48.93731637 43.37700032 -46.2487793 40.58422852 C-45.23165726 39.50238053 -44.21473563 38.42034408 -43.19799805 37.33813477 C-42.41368408 36.51079834 -42.41368408 36.51079834 -41.61352539 35.66674805 C-39.23381242 33.14480624 -36.89845638 30.58302426 -34.5612793 28.02172852 C-33.65271446 27.02927607 -32.74385864 26.03708992 -31.8347168 25.04516602 C-31.38193359 24.55113281 -30.92915039 24.05709961 -30.46264648 23.5480957 C-29.01087762 21.96683108 -27.55592346 20.38854609 -26.1003418 18.81079102 C-25.61243164 18.28098633 -25.12452148 17.75118164 -24.62182617 17.20532227 C-23.27184137 15.73962448 -21.92051184 14.27516557 -20.5690918 12.81079102 C-15.45120811 7.455958 -15.45120811 7.455958 -12.0612793 1.02172852 C-8.03682028 -0.31975782 -4.19214187 -0.06184548 0 0 Z " fill="#FD5C3D" transform="translate(253.061279296875,97.978271484375)"/>
<path d="M0 0 C6.166875 -0.103125 12.33375 -0.20625 18.6875 -0.3125 C21.59502075 -0.38078003 21.59502075 -0.38078003 24.5612793 -0.45043945 C26.10724153 -0.46505008 27.65322307 -0.4777894 29.19921875 -0.48828125 C29.9941272 -0.51386108 30.78903564 -0.53944092 31.60803223 -0.5657959 C35.8807623 -0.56914496 37.51143177 -0.37550523 41.01513672 2.31738281 C43.56936037 5.7695119 43.578553 7.80815964 43.4375 12.0625 C43.41558594 13.27035156 43.39367187 14.47820312 43.37109375 15.72265625 C43.03017933 18.73346884 42.64573453 20.49872117 41 23 C37.76837449 25.30830393 34.8810735 25.17641243 31 25 C32.051875 26.051875 32.051875 26.051875 33.125 27.125 C33.57488281 27.57746094 34.02476562 28.02992188 34.48828125 28.49609375 C35.53794602 29.5403339 36.59871848 30.57347976 37.66796875 31.59765625 C39.14814809 33.02861348 40.57767678 34.51152221 42 36 C42 36.66 42 37.32 42 38 C38.44260696 38.77916352 35.5540438 38.85517742 32 38 C27.44153267 35.03543092 23.71840769 30.92668753 20 27 C18.33657163 25.33657163 16.2174291 25.63951903 13.9375 25.4375 C12.308125 25.293125 10.67875 25.14875 9 25 C9 29.29 9 33.58 9 38 C6.03 38 3.06 38 0 38 C0 25.46 0 12.92 0 0 Z " fill="#F9F9F9" transform="translate(122,271)"/>
<path d="M0 0 C12 0 12 0 14.83105469 2.35498047 C15.74226074 3.96977295 15.74226074 3.96977295 16.671875 5.6171875 C17.17911102 6.47571823 17.17911102 6.47571823 17.69659424 7.35159302 C18.7579338 9.17153233 19.75246718 11.01947308 20.75 12.875 C21.46214298 14.11298832 22.17825861 15.34870037 22.8984375 16.58203125 C28 25.44220374 28 25.44220374 28 28 C28.66 28 29.32 28 30 28 C30.27150879 27.28884033 30.54301758 26.57768066 30.82275391 25.8449707 C32.93618 20.73759737 35.65678414 15.99281249 38.375 11.1875 C38.93316406 10.11306641 39.49132812 9.03863281 40.06640625 7.93164062 C40.65035156 6.91650391 41.23429687 5.90136719 41.8359375 4.85546875 C42.34688965 3.92371826 42.8578418 2.99196777 43.38427734 2.03198242 C46 0 46 0 58 0 C58 12.54 58 25.08 58 38 C55.03 38 52.06 38 49 38 C48.67 30.08 48.34 22.16 48 14 C47.00097656 15.64871094 46.00195312 17.29742187 44.97265625 18.99609375 C43.66934562 21.14327457 42.36595614 23.29040752 41.0625 25.4375 C40.40314453 26.52611328 39.74378906 27.61472656 39.06445312 28.73632812 C38.12182617 30.28803711 38.12182617 30.28803711 37.16015625 31.87109375 C36.57886963 32.82943115 35.99758301 33.78776855 35.39868164 34.77514648 C34 37 34 37 33 38 C28.12449905 39.0492926 28.12449905 39.0492926 25 38 C21.84885158 34.59407122 19.73426743 30.67161312 17.5 26.625 C16.55253906 25.00464844 16.55253906 25.00464844 15.5859375 23.3515625 C11 15.41054518 11 15.41054518 11 13 C10.34 13 9.68 13 9 13 C9 21.25 9 29.5 9 38 C6.03 38 3.06 38 0 38 C0 25.46 0 12.92 0 0 Z " fill="#F5F5F5" transform="translate(174,271)"/>
<path d="M0 0 C13.86 0 27.72 0 42 0 C42 2.31 42 4.62 42 7 C31.11 7 20.22 7 9 7 C9 9.64 9 12.28 9 15 C17.58 15 26.16 15 35 15 C35 17.31 35 19.62 35 22 C26.42 22 17.84 22 9 22 C9 24.97 9 27.94 9 31 C19.89 31 30.78 31 42 31 C42 33.31 42 35.62 42 38 C28.14 38 14.28 38 0 38 C0 25.46 0 12.92 0 0 Z " fill="#FAFAFA" transform="translate(243,271)"/>
<path d="M0 0 C2.54719518 -0.00851081 4.89649639 0.17014885 7.40161133 0.61572266 C7.99063232 1.67315674 7.99063232 1.67315674 8.59155273 2.75195312 C10.401574 5.99914085 12.2140771 9.24493701 14.02661133 12.49072266 C14.64407227 13.59931641 15.2615332 14.70791016 15.89770508 15.85009766 C19.25278612 21.85392688 22.67028404 27.78399313 26.34838867 33.59667969 C27.40161133 35.61572266 27.40161133 35.61572266 27.40161133 38.61572266 C24.43161133 38.61572266 21.46161133 38.61572266 18.40161133 38.61572266 C17.08161133 36.30572266 15.76161133 33.99572266 14.40161133 31.61572266 C6.48161133 31.61572266 -1.43838867 31.61572266 -9.59838867 31.61572266 C-10.91838867 33.92572266 -12.23838867 36.23572266 -13.59838867 38.61572266 C-16.56838867 38.61572266 -19.53838867 38.61572266 -22.59838867 38.61572266 C-21.69267339 34.99286153 -20.63203173 32.56790722 -18.86791992 29.32666016 C-18.31168945 28.30185547 -17.75545898 27.27705078 -17.18237305 26.22119141 C-16.5977832 25.15513672 -16.01319336 24.08908203 -15.41088867 22.99072266 C-14.84563477 21.94787109 -14.28038086 20.90501953 -13.69799805 19.83056641 C-12.5664228 17.75406749 -11.4195257 15.68584108 -10.25708008 13.62646484 C-9.17095273 11.65500142 -8.14389464 9.64954973 -7.18579102 7.61279297 C-3.82556174 0.90651759 -3.82556174 0.90651759 0 0 Z " fill="#F7F7F7" transform="translate(89.598388671875,270.38427734375)"/>
<path d="M0 0 C3.51871036 -0.66113556 6.49903265 -0.82776697 10 0 C12.72238926 2.39839548 14.81227609 4.91667672 16.9921875 7.8125 C17.65476562 8.534375 18.31734375 9.25625 19 10 C20.32 10 21.64 10 23 10 C25.10692519 7.77562627 25.10692519 7.77562627 27.125 5 C31.19660132 0.18995518 31.19660132 0.18995518 34.80859375 -0.6640625 C37.27708285 -0.62904847 39.57561344 -0.45552148 42 0 C38.9644742 6.71404475 33.23214891 11.92640106 28 17 C29.65109819 21.06877768 32.53595778 23.97714121 35.5 27.125 C35.99886719 27.66253906 36.49773437 28.20007813 37.01171875 28.75390625 C38.97785496 30.86763446 40.95863889 32.95863889 43 35 C43 35.99 43 36.98 43 38 C39.29504217 38.74099157 37.57747862 39.00788101 34 38 C29.40048062 34.71522908 25.56271631 30.35242162 22 26 C22 25.34 22 24.68 22 24 C21.360625 24.639375 20.72125 25.27875 20.0625 25.9375 C19.60488281 26.38351562 19.14726562 26.82953125 18.67578125 27.2890625 C17.39756448 28.59409501 16.17517856 29.95404878 14.98046875 31.3359375 C9.22579457 37.7255407 9.22579457 37.7255407 5.41796875 38.578125 C2.9375 38.5625 2.9375 38.5625 -1 38 C-0.4340629 34.30090387 0.98813413 32.71204979 3.6875 30.1875 C7.38790875 26.63377412 10.7164756 22.94022928 14 19 C12.17093539 14.35614735 8.4630431 11.38913422 4.90039062 8.06640625 C0.35769904 3.69913152 0.35769904 3.69913152 0 0 Z " fill="#F8F8F8" transform="translate(383,271)"/>
<path d="M0 0 C12.54 0 25.08 0 38 0 C38 2.31 38 4.62 38 7 C33.05 7 28.1 7 23 7 C23 14.92 23 22.84 23 31 C27.95 31 32.9 31 38 31 C38 33.31 38 35.62 38 38 C25.46 38 12.92 38 0 38 C0 35.69 0 33.38 0 31 C4.62 31 9.24 31 14 31 C14 23.08 14 15.16 14 7 C9.38 7 4.76 7 0 7 C0 4.69 0 2.38 0 0 Z " fill="#F9F9F9" transform="translate(339,271)"/>
<path d="M0 0 C15.51 0 31.02 0 47 0 C47 2.64 47 5.28 47 8 C40.73 8 34.46 8 28 8 C28 17.9 28 27.8 28 38 C25.03 38 22.06 38 19 38 C19 28.1 19 18.2 19 8 C12.73 8 6.46 8 0 8 C0 5.36 0 2.72 0 0 Z " fill="#FAFAFA" transform="translate(289,271)"/>
<path d="M0 0 C2.75329021 1.79562405 4.52627461 3.05254922 6 6 C6.37934197 11.02628116 6.02448301 13.92858056 3 18 C1 20 1 20 -2.8125 20.4375 C-6.09507607 20.32389536 -7.07553933 19.95278792 -10 18.125 C-12.80712041 13.73887436 -13.02264164 10.07163742 -12 5 C-8.71154166 0.01748736 -5.83923052 -0.93844776 0 0 Z " fill="#050505" transform="translate(115,347)"/>
<path d="M0 0 C5.05514706 0.73529412 5.05514706 0.73529412 7.4375 2.5 C9.96277374 6.71793911 10.24903576 10.69912528 9.4375 15.5 C7.43936782 18.55963991 6.10240485 20.13075377 2.46484375 20.9375 C-1.06107067 21.14839582 -3.16027859 20.79908772 -6 18.6875 C-8.82899783 14.72690303 -9.04667261 11.26103066 -8.5625 6.5 C-6.60911628 2.48811773 -4.52671497 0.63532842 0 0 Z " fill="#050505" transform="translate(211.5625,346.5)"/>
<path d="M0 0 C2.9375 1.875 2.9375 1.875 5 5 C6.02264164 10.07163742 5.80712041 13.73887436 3 18.125 C-1.18639882 20.74149926 -3.11581193 20.77526795 -8 20 C-10.90976129 17.81767904 -11.79527376 16.18936195 -12.41015625 12.6171875 C-12.6718687 8.12110175 -12.45799462 5.69393124 -9.9375 1.875 C-6.21389337 -0.50177019 -4.34189423 -0.77533825 0 0 Z " fill="#090909" transform="translate(367,347)"/>
<path d="M0 0 C3.97921094 -0.02682614 7.95824341 -0.04675393 11.9375 -0.0625 C13.07380859 -0.07087891 14.21011719 -0.07925781 15.38085938 -0.08789062 C16.46044922 -0.09111328 17.54003906 -0.09433594 18.65234375 -0.09765625 C20.15269165 -0.10551147 20.15269165 -0.10551147 21.68334961 -0.11352539 C24 0 24 0 25 1 C25.27314815 6.73611111 25.27314815 6.73611111 25 9 C23 11 23 11 20.66162109 11.22705078 C19.70852051 11.21657715 18.75541992 11.20610352 17.7734375 11.1953125 C16.2265625 11.18564453 16.2265625 11.18564453 14.6484375 11.17578125 C13.56820312 11.15902344 12.48796875 11.14226562 11.375 11.125 C10.28703125 11.11597656 9.1990625 11.10695313 8.078125 11.09765625 C5.38532351 11.07403518 2.69263465 11.03816333 0 11 C0 7.37 0 3.74 0 0 Z " fill="#0C0C0C" transform="translate(131,278)"/>
<path d="M0 0 C9 0 9 0 11.5625 1.1875 C13 3 13 3 13.4375 5.5 C12.93915901 8.34766278 12.22984785 9.23470379 10 11 C10.474375 11.7425 10.94875 12.485 11.4375 13.25 C12.77869327 15.61050015 13.512312 17.36648477 14 20 C13.01 20 12.02 20 11 20 C10.77957031 19.15115234 10.77957031 19.15115234 10.5546875 18.28515625 C9.86380166 16.02588015 9.18251078 14.04881905 8 12 C4.92202417 10.85968434 4.92202417 10.85968434 2 11 C2 13.97 2 16.94 2 20 C1.34 20 0.68 20 0 20 C0 13.4 0 6.8 0 0 Z " fill="#D0D0D0" transform="translate(240,347)"/>
<path d="M0 0 C9 0 9 0 11.5625 1.1875 C13 3 13 3 13.4375 5.5 C12.93915901 8.34766278 12.22984785 9.23470379 10 11 C10.474375 11.7425 10.94875 12.485 11.4375 13.25 C12.77869327 15.61050015 13.512312 17.36648477 14 20 C13.01 20 12.02 20 11 20 C10.77957031 19.15115234 10.77957031 19.15115234 10.5546875 18.28515625 C9.86380166 16.02588015 9.18251078 14.04881905 8 12 C4.92202417 10.85968434 4.92202417 10.85968434 2 11 C2 13.97 2 16.94 2 20 C1.34 20 0.68 20 0 20 C0 13.4 0 6.8 0 0 Z " fill="#D0D0D0" transform="translate(140,347)"/>
<path d="M0 0 C9 0 9 0 11.5625 1.0625 C13.76482517 4.03085131 13.39036882 6.42161914 13 10 C11 12 11 12 8.8359375 12.1953125 C7.61777344 12.16050781 7.61777344 12.16050781 6.375 12.125 C5.55773437 12.10695313 4.74046875 12.08890625 3.8984375 12.0703125 C3.27195313 12.04710937 2.64546875 12.02390625 2 12 C2 14.64 2 17.28 2 20 C1.34 20 0.68 20 0 20 C0 13.4 0 6.8 0 0 Z " fill="#CCCCCC" transform="translate(172,347)"/>
<path d="M0 0 C1.89355469 0.26586914 1.89355469 0.26586914 4 1 C5.00488281 2.64233398 5.00488281 2.64233398 5.703125 4.74609375 C5.9609375 5.50083984 6.21875 6.25558594 6.484375 7.03320312 C6.73703125 7.82662109 6.9896875 8.62003906 7.25 9.4375 C7.518125 10.22705078 7.78625 11.01660156 8.0625 11.83007812 C10 17.62775032 10 17.62775032 10 20 C9.01 20 8.02 20 7 20 C6.67 18.68 6.34 17.36 6 16 C3.03 15.67 0.06 15.34 -3 15 C-3.33 16.65 -3.66 18.3 -4 20 C-4.99 20 -5.98 20 -7 20 C-5.07443364 13.14381674 -2.7527517 6.56747868 0 0 Z " fill="#B7B7B7" transform="translate(277,347)"/>
<path d="M0 0 C5.04574923 1.26143731 5.53470277 2.76327939 8.25 7.0625 C8.95640625 8.16722656 9.6628125 9.27195312 10.390625 10.41015625 C10.92171875 11.26480469 11.4528125 12.11945313 12 13 C12.33 8.71 12.66 4.42 13 0 C13.66 0 14.32 0 15 0 C15 6.6 15 13.2 15 20 C8.8743158 16.9371579 7.28302531 11.9346996 4 6 C3.67 10.62 3.34 15.24 3 20 C2.01 20 1.02 20 0 20 C0 13.4 0 6.8 0 0 Z " fill="#ADADAD" transform="translate(391,347)"/>
<path d="M0 0 C2.75329021 1.79562405 4.52627461 3.05254922 6 6 C6.37934197 11.02628116 6.02448301 13.92858056 3 18 C1 20 1 20 -2.8125 20.4375 C-6.09507607 20.32389536 -7.07553933 19.95278792 -10 18.125 C-12.80712041 13.73887436 -13.02264164 10.07163742 -12 5 C-8.71154166 0.01748736 -5.83923052 -0.93844776 0 0 Z M-7.6640625 3.2109375 C-9.426948 5.57176077 -9.40109576 7.07727438 -9.375 10 C-9.38273437 10.86625 -9.39046875 11.7325 -9.3984375 12.625 C-8.92584138 15.44204351 -8.28599151 16.33111887 -6 18 C-3 18.58333333 -3 18.58333333 0 18 C2.08686892 16.63926464 2.08686892 16.63926464 3 14 C3.80131577 8.30545371 3.80131577 8.30545371 1.6640625 3.24609375 C-1.27182409 1.04762469 -4.70085935 1.05461596 -7.6640625 3.2109375 Z " fill="#C7C7C7" transform="translate(115,347)"/>
<path d="M0 0 C5.05514706 0.73529412 5.05514706 0.73529412 7.4375 2.5 C9.96277374 6.71793911 10.24903576 10.69912528 9.4375 15.5 C7.43936782 18.55963991 6.10240485 20.13075377 2.46484375 20.9375 C-1.06107067 21.14839582 -3.16027859 20.79908772 -6 18.6875 C-8.82899783 14.72690303 -9.04667261 11.26103066 -8.5625 6.5 C-6.60911628 2.48811773 -4.52671497 0.63532842 0 0 Z M-4.2265625 3.7109375 C-5.989448 6.07176077 -5.96359576 7.57727438 -5.9375 10.5 C-5.94523438 11.36625 -5.95296875 12.2325 -5.9609375 13.125 C-5.48848387 15.94119416 -4.85087946 16.83474734 -2.5625 18.5 C1.52557042 19.02747349 1.52557042 19.02747349 5.1015625 17.2890625 C6.864448 14.92823923 6.83859576 13.42272562 6.8125 10.5 C6.82023438 9.63375 6.82796875 8.7675 6.8359375 7.875 C6.36348387 5.05880584 5.72587946 4.16525266 3.4375 2.5 C-0.65057042 1.97252651 -0.65057042 1.97252651 -4.2265625 3.7109375 Z " fill="#C8C8C8" transform="translate(211.5625,346.5)"/>
<path d="M0 0 C0.66 0 1.32 0 2 0 C4.31 4.62 6.62 9.24 9 14 C3.72 14 -1.56 14 -7 14 C-4.69 9.38 -2.38 4.76 0 0 Z " fill="#080808" transform="translate(91,280)"/>
<path d="M0 0 C2.9375 1.875 2.9375 1.875 5 5 C6.02264164 10.07163742 5.80712041 13.73887436 3 18.125 C-1.18639882 20.74149926 -3.11581193 20.77526795 -8 20 C-10.90976129 17.81767904 -11.79527376 16.18936195 -12.41015625 12.6171875 C-12.6718687 8.12110175 -12.45799462 5.69393124 -9.9375 1.875 C-6.21389337 -0.50177019 -4.34189423 -0.77533825 0 0 Z M-8.4375 3.5 C-10.57011917 6.91219068 -10.48669429 9.03691793 -10 13 C-9.06150487 15.98341617 -9.06150487 15.98341617 -7 18 C-3.3711179 18.69489232 -1.71762047 18.47211873 1.375 16.4375 C3.59464544 13.10803184 3.42107788 10.93006023 3 7 C2.62368888 4.57781883 2.62368888 4.57781883 1 3 C-2.87327103 1.85236414 -4.92682289 1.33958332 -8.4375 3.5 Z " fill="#C8C8C8" transform="translate(367,347)"/>
<path d="M0 0 C2.4375 1.375 2.4375 1.375 4 3 C4 3.66 4 4.32 4 5 C3.278125 4.67 2.55625 4.34 1.8125 4 C-1.11009446 2.9608553 -2.93860708 2.51662217 -6 3 C-8.5354784 5.27318753 -8.9666159 6.59939082 -9.25 10 C-9.04374922 12.47500934 -8.72767897 14.63504335 -8 17 C-6.72125 17.061875 -5.4425 17.12375 -4.125 17.1875 C-3.40570313 17.22230469 -2.68640625 17.25710938 -1.9453125 17.29296875 C-0.98238281 17.14794922 -0.98238281 17.14794922 0 17 C0.66 16.01 1.32 15.02 2 14 C2.66 14 3.32 14 4 14 C3.6875 15.875 3.6875 15.875 3 18 C-0.71013399 20.47342266 -2.61060262 20.38503486 -7 20 C-10.1850357 18.23984869 -10.83296972 17.50109084 -12 14 C-12.62805899 9.20880716 -12.68844911 6.02224261 -9.9375 1.9375 C-6.2676953 -0.48300948 -4.32043918 -0.62842752 0 0 Z " fill="#C6C6C6" transform="translate(82,347)"/>
<path d="M0 0 C3.375 -0.125 3.375 -0.125 7 0 C9 2 9 2 9.1875 4.5625 C9 7 9 7 8 8 C5.32941149 8.14115161 2.67567762 8.04247107 0 8 C0 5.36 0 2.72 0 0 Z " fill="#0F0F0F" transform="translate(174,349)"/>
<path d="M0 0 C0.33 1.32 0.66 2.64 1 4 C3.31 4 5.62 4 8 4 C8.33 3.01 8.66 2.02 9 1 C11.19097652 4.3340947 12.43454163 7.04179141 13 11 C12.01 11 11.02 11 10 11 C9.67 9.68 9.34 8.36 9 7 C6.03 6.67 3.06 6.34 0 6 C-0.33 7.65 -0.66 9.3 -1 11 C-1.99 11 -2.98 11 -4 11 C-3.5247412 9.35303396 -3.04468109 7.70745272 -2.5625 6.0625 C-2.29566406 5.14597656 -2.02882813 4.22945313 -1.75390625 3.28515625 C-1 1 -1 1 0 0 Z " fill="#C8C8C8" transform="translate(274,356)"/>
<path d="M0 0 C4.95 0 9.9 0 15 0 C15 0.66 15 1.32 15 2 C12.69 2 10.38 2 8 2 C8 7.94 8 13.88 8 20 C7.34 20 6.68 20 6 20 C6 14.06 6 8.12 6 2 C4.02 2 2.04 2 0 2 C0 1.34 0 0.68 0 0 Z " fill="#CCCCCC" transform="translate(301,347)"/>
<path d="M0 0 C0.99 0 1.98 0 3 0 C3 6.6 3 13.2 3 20 C2.01 20 1.02 20 0 20 C0 13.4 0 6.8 0 0 Z " fill="#A7A7A7" transform="translate(333,347)"/>
<path d="M0 0 C2.33294775 -0.04241723 4.66702567 -0.04092937 7 0 C8 1 8 1 8.125 3.5 C8 6 8 6 7 7 C4.66702567 7.04092937 2.33294775 7.04241723 0 7 C0 4.69 0 2.38 0 0 Z " fill="#090909" transform="translate(242,349)"/>
<path d="M0 0 C2.33294775 -0.04241723 4.66702567 -0.04092937 7 0 C8 1 8 1 8.125 3.5 C8 6 8 6 7 7 C4.66702567 7.04092937 2.33294775 7.04241723 0 7 C0 4.69 0 2.38 0 0 Z " fill="#090909" transform="translate(142,349)"/>
<path d="M0 0 C0.99 0 1.98 0 3 0 C5.41771981 4.28198568 5.88632822 8.16391785 5 13 C2.5 16.0625 2.5 16.0625 0 18 C-0.33 17.01 -0.66 16.02 -1 15 C-0.34 14.34 0.32 13.68 1 13 C1.28127623 10.66293861 1.28127623 10.66293861 1.1875 8.0625 C1.18105469 7.18722656 1.17460937 6.31195313 1.16796875 5.41015625 C1.09069243 2.8562325 1.09069243 2.8562325 0 0 Z " fill="#B7B7B7" transform="translate(216,349)"/>
<path d="M0 0 C0.66 0 1.32 0 2 0 C2 6.6 2 13.2 2 20 C-2 18 -2 18 -2.75 15.875 C-2.8325 15.25625 -2.915 14.6375 -3 14 C-2.34 14 -1.68 14 -1 14 C-0.67 9.38 -0.34 4.76 0 0 Z " fill="#CDCDCD" transform="translate(404,347)"/>
<path d="M0 0 C0.66 0 1.32 0 2 0 C2.33 4.29 2.66 8.58 3 13 C3.66 13 4.32 13 5 13 C4.67 13.99 4.34 14.98 4 16 C-0.79582971 12.40312772 -0.79582971 12.40312772 -1.3671875 8.4765625 C-1.37443711 5.94644985 -1.32529824 3.50944357 -1 1 C-0.67 0.67 -0.34 0.34 0 0 Z " fill="#B6B6B6" transform="translate(104,351)"/>
<path d="M0 0 C-0.33 0.66 -0.66 1.32 -1 2 C-3.33333333 2.66666667 -5.66666667 3.33333333 -8 4 C-9.14814997 6.29629994 -9.30769809 8.07698086 -9.5625 10.625 C-9.64628906 11.44226563 -9.73007812 12.25953125 -9.81640625 13.1015625 C-9.87699219 13.72804688 -9.93757813 14.35453125 -10 15 C-10.66 15 -11.32 15 -12 15 C-12.77162899 6.16913484 -12.77162899 6.16913484 -9.9375 1.875 C-6.35870823 -0.40933517 -4.16952449 -0.40877691 0 0 Z " fill="#CDCDCD" transform="translate(367,347)"/>
<path d="M0 0 C2.4375 1.375 2.4375 1.375 4 3 C4 3.66 4 4.32 4 5 C3.278125 4.67 2.55625 4.34 1.8125 4 C-1.13158986 2.95321249 -2.91635814 2.52559356 -6 3 C-8.18777466 4.9375006 -8.18777466 4.9375006 -10 7 C-10.66 7 -11.32 7 -12 7 C-9.74817278 0.41773582 -6.82008907 -0.59825343 0 0 Z " fill="#C1C1C1" transform="translate(82,347)"/>
<path d="M0 0 C0.99 1.32 1.98 2.64 3 4 C2.01 4.99 1.02 5.98 0 7 C0.474375 7.7425 0.94875 8.485 1.4375 9.25 C2.77869327 11.61050015 3.512312 13.36648477 4 16 C3.01 16 2.02 16 1 16 C0.76925781 15.36191406 0.53851563 14.72382813 0.30078125 14.06640625 C-0.67450112 11.59543393 -1.64838308 9.28868041 -3 7 C-5.6087705 5.7886547 -5.6087705 5.7886547 -8 6 C-8 5.67 -8 5.34 -8 5 C-4.535 4.505 -4.535 4.505 -1 4 C-0.67 2.68 -0.34 1.36 0 0 Z " fill="#BABABA" transform="translate(250,351)"/>
<path d="M0 0 C0.99 1.32 1.98 2.64 3 4 C2.01 4.99 1.02 5.98 0 7 C0.474375 7.7425 0.94875 8.485 1.4375 9.25 C2.77869327 11.61050015 3.512312 13.36648477 4 16 C3.01 16 2.02 16 1 16 C0.76925781 15.36191406 0.53851563 14.72382813 0.30078125 14.06640625 C-0.67450112 11.59543393 -1.64838308 9.28868041 -3 7 C-5.6087705 5.7886547 -5.6087705 5.7886547 -8 6 C-8 5.67 -8 5.34 -8 5 C-4.535 4.505 -4.535 4.505 -1 4 C-0.67 2.68 -0.34 1.36 0 0 Z " fill="#BABABA" transform="translate(150,351)"/>
<path d="M0 0 C2.97903734 2.97903734 4 5.80285329 4 10 C1.69 10 -0.62 10 -3 10 C-2.01 6.7 -1.02 3.4 0 0 Z " fill="#1D1D1D" transform="translate(278,350)"/>
<path d="M0 0 C0.66 0 1.32 0 2 0 C2.4125 0.639375 2.825 1.27875 3.25 1.9375 C5.59697894 4.70358232 7.48008781 4.68711892 11 5 C11 5.66 11 6.32 11 7 C4.65625 7.48798077 4.65625 7.48798077 1.5625 5.1875 C0 3 0 3 0 0 Z " fill="#CCCCCC" transform="translate(204,360)"/>
<path d="M0 0 C0.33 0.99 0.66 1.98 1 3 C-0.5625 5 -0.5625 5 -3 7 C-6.75 7.25 -6.75 7.25 -10 7 C-10 6.34 -10 5.68 -10 5 C-8.906875 4.731875 -7.81375 4.46375 -6.6875 4.1875 C-3.38307337 3.12336261 -2.05039578 2.65345336 0 0 Z " fill="#C7C7C7" transform="translate(119,360)"/>
<path d="M0 0 C0.66 0 1.32 0 2 0 C3.4783226 2.95664519 3.06032783 5.74229737 3 9 C2.01 9.33 1.02 9.66 0 10 C0 6.7 0 3.4 0 0 Z " fill="#B6B6B6" transform="translate(118,351)"/>
<path d="M0 0 C0.91007812 0.00902344 1.82015625 0.01804687 2.7578125 0.02734375 C3.45648438 0.03894531 4.15515625 0.05054688 4.875 0.0625 C4.875 0.3925 4.875 0.7225 4.875 1.0625 C1.905 1.0625 -1.065 1.0625 -4.125 1.0625 C-4.455 2.7125 -4.785 4.3625 -5.125 6.0625 C-6.115 6.0625 -7.105 6.0625 -8.125 6.0625 C-7.75 3.625 -7.75 3.625 -7.125 1.0625 C-4.60024538 -0.19987731 -2.81299534 -0.03606404 0 0 Z " fill="#A1A1A1" transform="translate(278.125,360.9375)"/>
<path d="M0 0 C0 2.64 0 5.28 0 8 C-0.99 8 -1.98 8 -3 8 C-3 5.69 -3 3.38 -3 1 C-1 0 -1 0 0 0 Z " fill="#B4B4B4" transform="translate(206,352)"/>
<path d="M0 0 C2.40072955 2.88087546 4.47291037 5.56404834 6 9 C5.01 9.33 4.02 9.66 3 10 C0.59185923 6.48812804 -0.36629408 4.27343092 0 0 Z " fill="#BBBBBB" transform="translate(397,352)"/>
<path d="M0 0 C0.99 0.33 1.98 0.66 3 1 C4.1875 4.5625 4.1875 4.5625 5 8 C4.01 8 3.02 8 2 8 C1.34 5.36 0.68 2.72 0 0 Z " fill="#C3C3C3" transform="translate(249,359)"/>
<path d="M0 0 C0.99 0.33 1.98 0.66 3 1 C4.1875 4.5625 4.1875 4.5625 5 8 C4.01 8 3.02 8 2 8 C1.34 5.36 0.68 2.72 0 0 Z " fill="#C3C3C3" transform="translate(149,359)"/>
<path d="M0 0 C1.875 0.1875 1.875 0.1875 4 1 C5.25 3.5625 5.25 3.5625 6 6 C5.01 6 4.02 6 3 6 C2.67 4.68 2.34 3.36 2 2 C1.34 2 0.68 2 0 2 C0 1.34 0 0.68 0 0 Z " fill="#B7B7B7" transform="translate(366,348)"/>
<path d="M0 0 C0.99 0.33 1.98 0.66 3 1 C1.71937515 2.7074998 0.38232443 4.37373596 -1 6 C-1.66 6 -2.32 6 -3 6 C-1.125 1.125 -1.125 1.125 0 0 Z " fill="#B0B0B0" transform="translate(73,348)"/>
</svg>
